<?xml version="1.0" encoding="utf-8"?>
<svg viewBox="0 0 500 500" xmlns="http://www.w3.org/2000/svg">
  <path d="M 337.606 410.873 L 341.956 410.873 L 449.139 100.399 L 476.033 100.399 L 476.033 86.358 L 388.428 86.358 L 388.428 100.399 L 431.737 100.399 L 346.9 355.7 L 259.888 100.399 L 303.592 100.399 L 303.592 86.358 L 210.647 86.358 L 247.429 190.18 L 190.674 354.711 L 99.113 100.399 L 143.015 100.399 L 143.015 86.358 L 23.967 86.358 L 23.967 100.399 L 56.003 100.399 L 155.474 378.442 C 162.593 399.008 169.059 410.339 174.853 412.455 C 177.089 413.247 179.263 413.642 181.379 413.642 L 185.73 413.642 L 255.933 215.097 L 313.875 378.442 C 320.341 396.774 325.543 407.057 329.497 409.291 C 331.732 410.339 334.441 410.873 337.606 410.873 Z" style="fill: rgb(51, 51, 51); white-space: pre;" transform="matrix(0, 1, -1, 0, 500, 0.00001)"/>
</svg>